<svg width="80" height="80" viewBox="0 0 80 80" fill="none"
    xmlns="http://www.w3.org/2000/svg">
    <rect width="80" height="80" rx="40" fill="#F4F5F7"/>
    <path d="M32 26.0001C30.0233 26.0016 28.9872 26.0268 28.184 26.436C27.4314 26.8195 26.8195 27.4314 26.436 28.184C26 29.0397 26 30.1598 26 32.4V51.6C26 53.8402 26 54.9603 26.436 55.816C26.8195 56.5686 27.4314 57.1805 28.184 57.564C29.0397 58 30.1598 58 32.4 58H47.6C49.8402 58 50.9603 58 51.816 57.564C52.5686 57.1805 53.1805 56.5686 53.564 55.816C54 54.9603 54 53.8402 54 51.6V32.4C54 30.1598 54 29.0397 53.564 28.184C53.1805 27.4314 52.5686 26.8195 51.816 26.436C51.0128 26.0268 49.9767 26.0016 48 26.0001M32 26.0001V30H48V26.0001M32 26.0001V25.4142C32 24.5087 32.3597 23.6403 33 23C33.6403 22.3597 34.5087 22 35.4142 22H44.5858C45.4913 22 46.3597 22.3597 47 23C47.6403 23.6403 48 24.5087 48 25.4142V26.0001M36 40L44 48M44 40L36 48" stroke="#707D9F" stroke-width="4" stroke-linecap="round" stroke-linejoin="round"/>
</svg>
