<svg width="20" height="20" viewBox="0 0 20 20" fill="none" xmlns="http://www.w3.org/2000/svg">
<path d="M10 4.58333C10 5.73393 9.06726 6.66667 7.91667 6.66667C6.76607 6.66667 5.83333 5.73393 5.83333 4.58333M10 4.58333C10 3.43274 9.06726 2.5 7.91667 2.5C6.76607 2.5 5.83333 3.43274 5.83333 4.58333M10 4.58333H17.5M5.83333 4.58333H2.5M15.8333 10C15.8333 11.1506 14.9006 12.0833 13.75 12.0833C12.5994 12.0833 11.6667 11.1506 11.6667 10M15.8333 10C15.8333 8.84941 14.9006 7.91667 13.75 7.91667C12.5994 7.91667 11.6667 8.84941 11.6667 10M15.8333 10H17.5M11.6667 10H2.5M8.33333 15.4167C8.33333 16.5673 7.40059 17.5 6.25 17.5C5.09941 17.5 4.16667 16.5673 4.16667 15.4167M8.33333 15.4167C8.33333 14.2661 7.40059 13.3333 6.25 13.3333C5.09941 13.3333 4.16667 14.2661 4.16667 15.4167M8.33333 15.4167H17.5M4.16667 15.4167H2.5" stroke="#4D37B3" stroke-width="1.5" stroke-linecap="round" stroke-linejoin="round"/>
</svg>
