<svg width="20" height="20" viewBox="0 0 20 20" fill="none" xmlns="http://www.w3.org/2000/svg">
<path d="M15 5L14.3326 15.0107C14.2741 15.8875 14.2449 16.3259 14.0555 16.6583C13.8888 16.951 13.6373 17.1863 13.3342 17.3332C12.99 17.5 12.5506 17.5 11.6718 17.5H8.32812C7.44937 17.5 7.01 17.5 6.66572 17.3332C6.36262 17.1863 6.11114 16.951 5.94441 16.6583C5.75504 16.3259 5.72581 15.8875 5.66736 15.0107L4.99998 5M3.33331 5H16.6666M13.3333 5L13.1078 4.32339C12.8892 3.66771 12.7799 3.33987 12.5772 3.09748C12.3982 2.88345 12.1684 2.71777 11.9087 2.61565C11.6147 2.5 11.2691 2.5 10.578 2.5H9.422C8.73085 2.5 8.38528 2.5 8.09123 2.61565C7.83158 2.71777 7.60171 2.88345 7.42272 3.09748C7.22002 3.33987 7.11074 3.66771 6.89218 4.32339L6.66665 5M11.6666 8.33333V14.1667M8.33331 8.33333V14.1667" stroke="#707D9F" stroke-width="1.5" stroke-linecap="round" stroke-linejoin="round"/>
</svg>
