<svg width="25" height="24" viewBox="0 0 25 24" fill="none" xmlns="http://www.w3.org/2000/svg">
<path d="M16.5 6C16.5 4.34315 15.1569 3 13.5 3H11.5C9.84315 3 8.5 4.34315 8.5 6M3.52747 10.022L7.18521 12.9482C7.67251 13.338 7.91617 13.5329 8.18749 13.6715C8.4282 13.7945 8.68443 13.8844 8.94921 13.9387C9.24767 14 9.5597 14 10.1837 14H14.8163C15.4403 14 15.7523 14 16.0508 13.9387C16.3156 13.8844 16.5718 13.7945 16.8125 13.6715C17.0838 13.5329 17.3275 13.338 17.8148 12.9482L21.4725 10.022M3.52747 10.022C3.5 10.4895 3.5 11.0642 3.5 11.8V16.2C3.5 17.8802 3.5 18.7202 3.82698 19.362C4.1146 19.9265 4.57354 20.3854 5.13803 20.673C5.77976 21 6.61984 21 8.3 21H16.7C18.3802 21 19.2202 21 19.862 20.673C20.4265 20.3854 20.8854 19.9265 21.173 19.362C21.5 18.7202 21.5 17.8802 21.5 16.2V11.8C21.5 11.0642 21.5 10.4895 21.4725 10.022M3.52747 10.022C3.56272 9.42205 3.6432 8.99871 3.82698 8.63803C4.1146 8.07354 4.57354 7.6146 5.13803 7.32698C5.77976 7 6.61984 7 8.3 7H16.7C18.3802 7 19.2202 7 19.862 7.32698C20.4265 7.6146 20.8854 8.07354 21.173 8.63803C21.3568 8.99871 21.4373 9.42205 21.4725 10.022" stroke="#707D9F" stroke-width="2" stroke-linecap="round" stroke-linejoin="round"/>
</svg>
