<svg width="25" height="24" viewBox="0 0 25 24" fill="none" xmlns="http://www.w3.org/2000/svg">
<path d="M13.25 19H19.55C20.6701 19 21.2302 19 21.658 18.782C22.0343 18.5903 22.3403 18.2843 22.532 17.908C22.75 17.4802 22.75 16.9201 22.75 15.8V8.2C22.75 7.0799 22.75 6.51984 22.532 6.09202C22.3403 5.71569 22.0343 5.40973 21.658 5.21799C21.2302 5 20.6701 5 19.55 5H6.95C5.8299 5 5.26984 5 4.84202 5.21799C4.46569 5.40973 4.15973 5.71569 3.96799 6.09202C3.75 6.51984 3.75 7.0799 3.75 8.2V15M3.75 9H21.75M9.75 19.0008L3.75 19M9.75 19.0008L7.75 17M9.75 19.0008L7.75 21" stroke="white" stroke-width="2" stroke-linecap="round" stroke-linejoin="round"/>
</svg>
