<svg width="25" height="24" viewBox="0 0 25 24" fill="none" xmlns="http://www.w3.org/2000/svg">
<path d="M6.52958 19.4012C6.47501 19.9508 6.8763 20.4405 7.42589 20.4951C7.97547 20.5497 8.46523 20.1484 8.51979 19.5988L6.52958 19.4012ZM16.4802 19.5988C16.5348 20.1484 17.0245 20.5497 17.5741 20.4951C18.1237 20.4405 18.525 19.9508 18.4704 19.4012L16.4802 19.5988ZM20.5 12C20.5 16.4183 16.9183 20 12.5 20V22C18.0228 22 22.5 17.5228 22.5 12H20.5ZM12.5 20C8.08172 20 4.5 16.4183 4.5 12H2.5C2.5 17.5228 6.97715 22 12.5 22V20ZM4.5 12C4.5 7.58172 8.08172 4 12.5 4V2C6.97715 2 2.5 6.47715 2.5 12H4.5ZM12.5 4C16.9183 4 20.5 7.58172 20.5 12H22.5C22.5 6.47715 18.0228 2 12.5 2V4ZM13.5 10C13.5 10.5523 13.0523 11 12.5 11V13C14.1569 13 15.5 11.6569 15.5 10H13.5ZM12.5 11C11.9477 11 11.5 10.5523 11.5 10H9.5C9.5 11.6569 10.8431 13 12.5 13V11ZM11.5 10C11.5 9.44772 11.9477 9 12.5 9V7C10.8431 7 9.5 8.34315 9.5 10H11.5ZM12.5 9C13.0523 9 13.5 9.44772 13.5 10H15.5C15.5 8.34315 14.1569 7 12.5 7V9ZM8.51979 19.5988C8.72038 17.5785 10.4265 16 12.5 16V14C9.38819 14 6.83072 16.3681 6.52958 19.4012L8.51979 19.5988ZM12.5 16C14.5735 16 16.2796 17.5785 16.4802 19.5988L18.4704 19.4012C18.1693 16.3681 15.6118 14 12.5 14V16Z" fill="#707D9F"/>
</svg>
