<svg width="24" height="24" viewBox="0 0 24 24" fill="none" xmlns="http://www.w3.org/2000/svg">
<path d="M8.44444 4H8.26667C6.77319 4 6.02646 4 5.45603 4.29065C4.95426 4.54631 4.54631 4.95426 4.29065 5.45603C4 6.02646 4 6.77319 4 8.26667V8.44444M8.44444 20H8.26667C6.77319 20 6.02646 20 5.45603 19.7094C4.95426 19.4537 4.54631 19.0457 4.29065 18.544C4 17.9735 4 17.2268 4 15.7333V15.5556M20 8.44444V8.26667C20 6.77319 20 6.02646 19.7094 5.45603C19.4537 4.95426 19.0457 4.54631 18.544 4.29065C17.9735 4 17.2268 4 15.7333 4H15.5556M20 15.5556V15.7333C20 17.2268 20 17.9735 19.7094 18.544C19.4537 19.0457 19.0457 19.4537 18.544 19.7094C17.9735 20 17.2268 20 15.7333 20H15.5556M4 12H4.01M8 12H8.01M16 12H16.01M12 12H12.01M20 12H20.01" stroke="#707D9F" stroke-width="2" stroke-linecap="round" stroke-linejoin="round"/>
</svg>
